<svg width="80" height="22" viewBox="0 0 80 22" fill="none" xmlns="http://www.w3.org/2000/svg">
<mask id="mask0" mask-type="alpha" maskUnits="userSpaceOnUse" x="22" y="0" width="58" height="22">
<path fill-rule="evenodd" clip-rule="evenodd" d="M22.135 0.444443H79.9528V21.8507H22.135V0.444443Z" fill="white"/>
</mask>
<g mask="url(#mask0)">
<path fill-rule="evenodd" clip-rule="evenodd" d="M68.9275 6.37644H71.7643L74.6443 13.5338H74.6875L77.2666 6.37644H79.9532L75.0741 18.9062C74.8879 19.3938 74.6839 19.82 74.4617 20.1853C74.2395 20.5511 73.9781 20.8587 73.6772 21.1093C73.3763 21.3604 73.0217 21.5467 72.6132 21.668C72.2048 21.7902 71.7146 21.8507 71.1408 21.8507C70.4679 21.8507 69.8083 21.7649 69.1635 21.5929L69.4861 19.272C69.6866 19.3436 69.8981 19.4044 70.1203 19.4547C70.3426 19.5049 70.5679 19.5298 70.7972 19.5298C71.1123 19.5298 71.3777 19.5009 71.5923 19.4436C71.807 19.3862 71.9901 19.2969 72.1403 19.1751C72.2906 19.0533 72.4163 18.896 72.5163 18.7022C72.6172 18.5089 72.7243 18.276 72.839 18.004L73.3332 16.7787L68.9275 6.37644ZM58.9701 11.5342C58.9701 11.936 59.0381 12.3227 59.1746 12.6951C59.3101 13.068 59.511 13.3973 59.7759 13.6836C60.0412 13.9707 60.3603 14.2 60.7328 14.3716C61.1048 14.5436 61.5279 14.6293 62.0008 14.6293C62.4737 14.6293 62.8963 14.5436 63.2688 14.3716C63.6412 14.2 63.9599 13.9707 64.2252 13.6836C64.4906 13.3973 64.691 13.068 64.8266 12.6951C64.963 12.3227 65.031 11.936 65.031 11.5342C65.031 11.1333 64.963 10.7467 64.8266 10.3742C64.691 10.0013 64.4906 9.672 64.2252 9.38533C63.9599 9.09867 63.6412 8.86933 63.2688 8.69778C62.8963 8.52533 62.4737 8.43955 62.0008 8.43955C61.5279 8.43955 61.1048 8.52533 60.7328 8.69778C60.3603 8.86933 60.0412 9.09867 59.7759 9.38533C59.511 9.672 59.3101 10.0013 59.1746 10.3742C59.0381 10.7467 58.9701 11.1333 58.9701 11.5342ZM65.0741 15.1453H65.031C64.6586 15.7756 64.1572 16.2342 63.5266 16.5209C62.8963 16.8076 62.2155 16.9507 61.4848 16.9507C60.6821 16.9507 59.9697 16.8111 59.3461 16.532C58.723 16.2524 58.1892 15.8689 57.7452 15.3818C57.3008 14.8947 56.9643 14.3213 56.7346 13.6627C56.5057 13.0031 56.391 12.2938 56.391 11.5342C56.391 10.7751 56.5128 10.0658 56.7563 9.40666C56.9999 8.74755 57.3403 8.17466 57.7772 7.68755C58.2146 7.20044 58.7408 6.81689 59.3572 6.53778C59.9732 6.25822 60.6466 6.11822 61.3777 6.11822C61.8643 6.11822 62.2941 6.16844 62.667 6.26889C63.0395 6.36933 63.3688 6.49822 63.6559 6.65555C63.9421 6.81333 64.1857 6.98178 64.3861 7.16089C64.5866 7.34 64.7515 7.51555 64.8808 7.68755H64.9452V0.444443H67.5243V16.6929H65.0741V15.1453ZM44.6932 6.37644H47.143V8.03155H47.1861C47.4297 7.51555 47.8021 7.06755 48.3039 6.688C48.8052 6.30844 49.4857 6.11822 50.3452 6.11822C51.0332 6.11822 51.6172 6.23289 52.0972 6.46222C52.5772 6.69155 52.9679 6.99244 53.2688 7.36489C53.5692 7.73778 53.7843 8.16755 53.9132 8.65466C54.0421 9.14178 54.1066 9.65022 54.1066 10.1804V16.6929H51.5279V11.4702C51.5279 11.1836 51.5132 10.8649 51.4848 10.5138C51.4559 10.1627 51.3808 9.83289 51.259 9.52489C51.1372 9.21689 50.9475 8.95911 50.6897 8.75111C50.4315 8.54355 50.0808 8.43955 49.6363 8.43955C49.2066 8.43955 48.8443 8.51111 48.5506 8.65466C48.2572 8.79778 48.0132 8.99111 47.8203 9.23511C47.6266 9.47822 47.487 9.75778 47.4008 10.0729C47.315 10.3884 47.2719 10.7178 47.2719 11.0618V16.6929H44.6932V6.37644ZM39.8297 10.5031C39.8155 9.74355 39.5786 9.14533 39.1203 8.70844C38.6617 8.27155 38.0243 8.05289 37.2075 8.05289C36.4337 8.05289 35.8212 8.27466 35.3697 8.71911C34.9186 9.16355 34.6426 9.75778 34.5426 10.5031H39.8297ZM34.5426 12.4373C34.6283 13.2111 34.9292 13.8124 35.4452 14.2427C35.9608 14.6724 36.5843 14.8871 37.315 14.8871C37.9599 14.8871 38.5008 14.7551 38.9377 14.4898C39.3746 14.2244 39.7581 13.8916 40.0875 13.4907L41.9359 14.8871C41.3341 15.6324 40.6603 16.1627 39.9155 16.4782C39.1706 16.7929 38.3897 16.9507 37.5728 16.9507C36.799 16.9507 36.0683 16.8218 35.3808 16.564C34.6928 16.3062 34.0981 15.9409 33.5968 15.4676C33.095 14.9951 32.6977 14.4253 32.4039 13.7591C32.1101 13.0924 31.9635 12.3511 31.9635 11.5342C31.9635 10.7178 32.1101 9.97644 32.4039 9.31022C32.6977 8.644 33.095 8.07422 33.5968 7.60133C34.0981 7.12844 34.6928 6.76311 35.3808 6.50533C36.0683 6.24711 36.799 6.11822 37.5728 6.11822C38.2892 6.11822 38.9448 6.244 39.5395 6.49466C40.1341 6.74533 40.6426 7.10711 41.0657 7.58C41.4883 8.05289 41.8177 8.63644 42.0541 9.33155C42.2901 10.0267 42.4088 10.8253 42.4088 11.728V12.4373H34.5426ZM28.5612 9.23511C28.0599 8.53289 27.3866 8.18178 26.5408 8.18178C26.1972 8.18178 25.8603 8.26755 25.5306 8.43955C25.2012 8.61155 25.0368 8.89111 25.0368 9.27778C25.0368 9.59289 25.1728 9.82222 25.4448 9.96578C25.7172 10.1089 26.0608 10.2307 26.4763 10.3311C26.8919 10.4316 27.3399 10.5351 27.8199 10.6427C28.2999 10.7502 28.7475 10.9147 29.163 11.1369C29.5786 11.3591 29.9226 11.6636 30.195 12.0507C30.467 12.4373 30.603 12.9676 30.603 13.6409C30.603 14.2569 30.4706 14.776 30.2052 15.1991C29.9403 15.6218 29.5963 15.9618 29.1737 16.2196C28.7515 16.4782 28.2746 16.664 27.7443 16.7787C27.2146 16.8933 26.6843 16.9507 26.1541 16.9507C25.3519 16.9507 24.6137 16.836 23.9403 16.6071C23.267 16.3778 22.6652 15.9618 22.135 15.3604L23.8546 13.7484C24.1839 14.1209 24.5386 14.4253 24.9181 14.6618C25.2981 14.8982 25.7603 15.016 26.3048 15.016C26.491 15.016 26.6843 14.9951 26.8848 14.952C27.0852 14.9089 27.2719 14.8373 27.4439 14.7373C27.6155 14.6369 27.7555 14.5116 27.8626 14.3609C27.9701 14.2102 28.0239 14.0347 28.0239 13.8342C28.0239 13.4764 27.8879 13.2111 27.6155 13.0391C27.3435 12.8671 26.9995 12.7276 26.5839 12.62C26.1683 12.5124 25.7208 12.412 25.2408 12.3191C24.7608 12.2258 24.3128 12.0756 23.8977 11.8676C23.4821 11.66 23.1381 11.3698 22.8657 10.9973C22.5937 10.6249 22.4572 10.1089 22.4572 9.44978C22.4572 8.87644 22.5755 8.37866 22.8119 7.956C23.0483 7.53333 23.3603 7.18578 23.747 6.91378C24.1337 6.64133 24.5781 6.44089 25.0795 6.312C25.5812 6.18266 26.0897 6.11822 26.6052 6.11822C27.2932 6.11822 27.9737 6.23689 28.6475 6.47289C29.3208 6.70978 29.8652 7.11422 30.2808 7.68755L28.5612 9.23511Z" fill="white"/>
</g>
<mask id="mask1" mask-type="alpha" maskUnits="userSpaceOnUse" x="0" y="1" width="20" height="20">
<path fill-rule="evenodd" clip-rule="evenodd" d="M0 1.59435H19.1066V20.701H0V1.59435Z" fill="white"/>
</mask>
<g mask="url(#mask1)">
<path fill-rule="evenodd" clip-rule="evenodd" d="M12.92 13.6121H11.5867V9.11435H7.08444V7.78101H12.92V13.6121ZM9.76889 16.7632H8.43556V12.2655H3.93778V10.9321H9.76889V16.7632ZM9.55111 1.59435C4.27556 1.59435 0 5.8699 0 11.1455C0 16.421 4.27556 20.701 9.55111 20.701C14.8267 20.701 19.1067 16.421 19.1067 11.1455C19.1067 5.8699 14.8267 1.59435 9.55111 1.59435Z" fill="white"/>
</g>
</svg>
